<svg xmlns="http://www.w3.org/2000/svg" width="301" height="301" fill="none"><title>hero image</title><circle cx="150.5" cy="150.5" r="144.5" stroke="#fff" stroke-width="2"/><path fill="#30CD9A" d="M16.488 198.386a5.835 5.835 0 0 1 5.835 5.835c0 3.207-2.613 5.82-5.835 5.82a5.829 5.829 0 0 1-5.82-5.82c0-3.222 2.613-5.835 5.82-5.835ZM51.575 250.65c0 3.223-2.612 5.835-5.819 5.835a5.835 5.835 0 0 1-5.835-5.835c0-3.207 2.613-5.819 5.835-5.819a5.828 5.828 0 0 1 5.82 5.819ZM99.944 284.83c-.204.219-.36.485-.47.783a2.29 2.29 0 0 0 .11 1.845c-.845 2.175-2.94 3.723-5.412 3.723-3.223 0-5.835-2.612-5.835-5.819a5.835 5.835 0 0 1 5.835-5.835c3.019 0 5.49 2.331 5.772 5.303ZM151.472 288.96a5.829 5.829 0 0 1 5.82 5.819c0 3.223-2.613 5.835-5.82 5.835a5.835 5.835 0 0 1-5.835-5.835c0-3.207 2.613-5.819 5.835-5.819ZM207.428 279.527c3.207 0 5.819 2.613 5.819 5.835a5.828 5.828 0 0 1-11.654 0 5.835 5.835 0 0 1 5.835-5.835ZM261.663 250.65a5.835 5.835 0 0 1-5.835 5.835 5.828 5.828 0 0 1 0-11.654c3.222 0 5.835 2.612 5.835 5.819ZM285.096 198.386c3.207 0 5.819 2.613 5.819 5.835a5.829 5.829 0 0 1-5.819 5.82c-3.222 0-5.835-2.613-5.835-5.82a5.836 5.836 0 0 1 5.835-5.835ZM294.795 144.183a5.828 5.828 0 0 1 5.819 5.819c0 3.222-2.612 5.835-5.819 5.835a5.835 5.835 0 0 1-5.835-5.835c0-3.207 2.612-5.819 5.835-5.819ZM285.096 91.747a5.828 5.828 0 0 1 5.819 5.82c0 3.222-2.612 5.834-5.819 5.834a5.835 5.835 0 0 1-5.835-5.835c0-3.207 2.613-5.82 5.835-5.82ZM255.828 45.303c3.222 0 5.835 2.612 5.835 5.819a5.835 5.835 0 0 1-5.835 5.835c-3.207 0-5.819-2.613-5.819-5.835a5.828 5.828 0 0 1 5.819-5.82ZM207.428 10.59c3.207 0 5.819 2.629 5.819 5.835 0 3.207-2.612 5.835-5.819 5.835-3.223 0-5.835-2.628-5.835-5.835 0-3.206 2.612-5.834 5.835-5.834ZM157.292 5.82c0 3.222-2.613 5.834-5.82 5.834a5.835 5.835 0 0 1-5.835-5.835c0-3.207 2.613-5.819 5.835-5.819a5.829 5.829 0 0 1 5.82 5.82ZM94.172 10.59c3.206 0 5.819 2.629 5.819 5.835 0 3.207-2.613 5.835-5.82 5.835-3.222 0-5.834-2.628-5.834-5.835 0-3.206 2.612-5.834 5.835-5.834ZM45.756 45.303a5.828 5.828 0 0 1 5.82 5.819c0 3.222-2.613 5.835-5.82 5.835a5.835 5.835 0 0 1-5.835-5.835c0-3.207 2.613-5.82 5.835-5.82ZM22.323 97.566a5.835 5.835 0 0 1-5.835 5.835c-3.207 0-5.82-2.612-5.82-5.835a5.828 5.828 0 0 1 5.82-5.82c3.222 0 5.835 2.613 5.835 5.82ZM5.835 144.183a5.828 5.828 0 0 1 5.82 5.819c0 3.222-2.613 5.835-5.82 5.835A5.835 5.835 0 0 1 0 150.002c0-3.207 2.612-5.819 5.835-5.819ZM223.963 68.172c-3.426 2.41-10.997 7.337-21.854 12.03-9.37-17.614-19.71-30.739-25.029-36.98 17.708 4.427 33.711 13.124 46.883 24.95ZM260.646 147.968h-39.358c-.548-23.746-8.057-45.662-16.989-63.495 11.92-5.194 19.976-10.669 23.168-13.015 19.96 19.538 32.537 46.569 33.179 76.51ZM203.267 218.77c12.108 5.396 19.898 10.934 21.978 12.498-13.249 12.265-29.487 21.353-47.508 25.984 5.71-6.805 16.238-20.446 25.53-38.482ZM221.303 152.662h39.343c-.626 29.315-12.702 55.861-31.975 75.306-1.079-.861-9.401-7.29-23.261-13.485 8.51-17.583 15.471-38.842 15.893-61.821ZM152.661 152.662h63.949c-.422 22.26-7.211 42.909-15.486 59.975-12.656-5.162-29.175-9.714-48.463-10.136v-49.839ZM198.965 216.939c-13.062 25.217-28.596 41.579-28.862 41.861l-.047.094a111.92 111.92 0 0 1-17.395 1.736v-53.437c18.271.422 34.102 4.803 46.304 9.746ZM95.157 219.41c8.682 16.958 18.35 29.91 23.918 36.762-16.644-4.928-31.661-13.672-44.035-25.217 2.487-1.815 9.511-6.68 20.117-11.545ZM147.968 207.177v53.453a109.164 109.164 0 0 1-20.993-2.44c-1.674-1.815-15.565-17.317-27.547-40.657 12.546-5.24 29.174-10.011 48.54-10.356Z"/><path fill="#30CD9A" d="M216.595 147.968h-63.934V95.876c18.725-.39 34.806-4.661 47.336-9.62 8.714 17.332 16.035 38.638 16.598 61.712ZM170.103 42.424c.266.266 14.877 15.643 27.673 39.562-12.045 4.74-27.422 8.807-45.115 9.198v-51.2c5.773.11 11.42.688 16.942 1.658.109.282.281.548.5.782ZM147.968 39.984v51.2c-18.928-.36-35.228-4.959-47.664-10.074 11.185-21.275 23.699-35.698 26.327-38.608 6.883-1.517 14.032-2.362 21.337-2.518ZM118.763 44.536c-5.428 6.695-14.455 18.85-22.761 34.712-9.48-4.302-16.222-8.65-19.507-10.935a110.148 110.148 0 0 1 42.268-23.777ZM147.968 95.877v52.092h-66.31c.468-23.418 7.79-45.053 16.471-62.589 12.875 5.35 29.863 10.137 49.839 10.497Z"/><path fill="#30CD9A" d="M93.828 83.519c-8.901 18.052-16.41 40.312-16.864 64.45h-36.98c.626-29.863 13.14-56.832 33.023-76.354 3.112 2.268 10.308 7.117 20.82 11.904ZM147.968 152.662v49.823c-20.383.344-37.668 5.287-50.668 10.762-8.275-17.144-15.127-38.012-15.643-60.585h66.311ZM76.964 152.662c.5 23.277 7.556 44.802 16.066 62.463-11.842 5.459-19.366 10.95-21.4 12.514-19.069-19.413-31.036-45.819-31.646-74.977h36.98Z"/><path fill="#05A678" d="M170.103 258.8c.266-.281 15.8-16.644 28.862-41.861-12.202-4.943-28.032-9.323-46.304-9.746v53.437a111.823 111.823 0 0 0 17.396-1.736l.046-.094Zm27.673-176.814c-12.796-23.919-27.407-39.296-27.673-39.562a2.457 2.457 0 0 1-.5-.782 109.83 109.83 0 0 0-16.942-1.658v51.2c17.693-.391 33.07-4.458 45.115-9.198Zm5.491 136.783c-9.292 18.037-19.82 31.678-25.53 38.482 18.021-4.63 34.259-13.719 47.509-25.983-2.081-1.564-9.871-7.102-21.979-12.499Zm-1.158-138.567c10.857-4.692 18.428-9.62 21.854-12.029-13.172-11.826-29.175-20.524-46.883-24.95 5.319 6.24 15.659 19.365 25.029 36.98Zm14.486 67.767c-.563-23.074-7.884-44.38-16.598-61.713-12.53 4.96-28.611 9.23-47.336 9.62v52.093h63.934Zm-15.471 64.668c8.275-17.066 15.064-37.715 15.487-59.976h-63.95v49.84c19.288.422 35.808 4.974 48.463 10.136Zm3.175-128.164c8.933 17.833 16.441 39.749 16.989 63.496h39.358c-.641-29.941-13.219-56.973-33.179-76.511-3.191 2.347-11.248 7.822-23.168 13.015Zm56.347 68.188h-39.343c-.422 22.98-7.383 44.239-15.893 61.822 13.86 6.195 22.182 12.624 23.261 13.485 19.273-19.445 31.349-45.991 31.975-75.307ZM71.63 66.437c20.602-19.335 48.275-31.209 78.685-31.209 63.448 0 115.071 51.623 115.071 115.087 0 63.449-51.623 115.071-115.071 115.071-63.464 0-115.087-51.622-115.087-115.071 0-32.632 13.672-62.119 35.573-83.08.047-.063.078-.141.14-.22.188-.25.439-.438.689-.578Zm21.4 148.688c-8.51-17.662-15.565-39.187-16.066-62.464h-36.98c.61 29.159 12.577 55.565 31.646 74.978 2.034-1.564 9.558-7.055 21.4-12.514Zm-16.066-67.156c.454-24.138 7.963-46.398 16.864-64.45-10.513-4.787-17.709-9.636-20.821-11.905-19.883 19.523-32.397 46.492-33.023 76.355h36.98Zm19.038-68.72c8.306-15.863 17.333-28.018 22.761-34.713a110.146 110.146 0 0 0-42.268 23.778c3.285 2.284 10.027 6.632 19.507 10.934Zm23.074 176.923c-5.569-6.852-15.237-19.804-23.919-36.761-10.606 4.865-17.63 9.73-20.117 11.544 12.374 11.545 27.391 20.29 44.036 25.217Zm7.555-213.67c-2.628 2.91-15.142 17.333-26.327 38.608 12.436 5.115 28.736 9.714 47.664 10.074v-51.2c-7.305.157-14.454 1.001-21.337 2.519Zm-29.33 170.745c12.999-5.475 30.284-10.418 50.667-10.762v-49.824h-66.31c.515 22.574 7.367 43.441 15.642 60.586Zm2.127 4.287c11.982 23.339 25.874 38.841 27.547 40.656a109.006 109.006 0 0 0 20.993 2.44v-53.452c-19.366.344-35.994 5.115-48.54 10.356Zm48.54-69.565V95.877c-19.976-.36-36.964-5.147-49.839-10.497-8.681 17.536-16.003 39.171-16.472 62.589h66.311Z"/></svg>
