<svg xmlns="http://www.w3.org/2000/svg" width="228" height="30" fill="none"><path fill="#fff" d="M0 29.045V.634h17.653v7.885h-9.53v3.686h9.332v7.865H8.123v8.975H0ZM24.66 22.388c-1.334-2.285-2-4.8-2-7.548s.666-5.257 2-7.53a14.37 14.37 0 0 1 5.449-5.368C32.42.647 34.956 0 37.717 0c2.76 0 5.29.647 7.588 1.942a14.33 14.33 0 0 1 5.468 5.369c1.334 2.272 2.001 4.781 2.001 7.529 0 2.747-.667 5.263-2 7.548-1.335 2.272-3.158 4.062-5.469 5.37-2.298 1.294-4.828 1.941-7.588 1.941s-5.297-.647-7.608-1.941a14.561 14.561 0 0 1-5.449-5.37Zm8.084-12.482c-1.308 1.308-1.962 2.952-1.962 4.934 0 1.981.654 3.625 1.962 4.933 1.307 1.308 2.965 1.962 4.973 1.962 2.007 0 3.665-.654 4.973-1.962 1.307-1.308 1.961-2.952 1.961-4.933 0-1.982-.654-3.626-1.961-4.934-1.308-1.307-2.966-1.961-4.973-1.961-2.008 0-3.666.654-4.973 1.961ZM58.61 29.006V.594h11.373c2.034 0 3.863.403 5.488 1.21a9.215 9.215 0 0 1 3.844 3.506c.95 1.519 1.426 3.276 1.426 5.27 0 1.69-.39 3.21-1.169 4.557-.78 1.347-1.856 2.437-3.23 3.27l5.608 10.599h-8.678l-4.518-8.936h-2.02v8.936H58.61Zm8.124-15.672h3.229c.793 0 1.427-.218 1.902-.654.502-.462.753-1.11.753-1.941 0-.833-.251-1.486-.753-1.962-.502-.475-1.182-.713-2.04-.713h-3.091v5.27ZM109.001 29.045l8.598-14.364-8.4-14.047h9.015l3.903 6.499L125.96.634h9.015l-8.361 14.047 8.559 14.364h-9.015l-4.041-6.815-4.102 6.815h-9.014ZM139.389 28.293c-.898-.912-1.347-2.015-1.347-3.31 0-1.294.449-2.39 1.347-3.288.911-.911 2.014-1.367 3.309-1.367 1.294 0 2.397.456 3.308 1.367.912.898 1.367 1.994 1.367 3.289 0 1.294-.455 2.397-1.367 3.309-.911.911-2.014 1.367-3.308 1.367-1.295 0-2.398-.456-3.309-1.367Z"/><path fill="#27BA34" d="M92.094 1.994h12.398v7.327H92.094V1.994Z"/><path fill="#27BA34" d="M84.204 4.812h12.398v1.69H84.204v-1.69Z"/><path fill="#F64445" d="M96.602 18.901H86.458v-7.326h10.144v7.326Z"/><path fill="#F64445" d="M104.492 16.084H84.204v-1.691h20.288v1.69Z"/><path fill="#27BA34" d="M95.475 21.719h9.017v7.326h-9.017V21.72Z"/><path fill="#27BA34" d="M84.204 24.537h12.398v1.69H84.204v-1.69Z"/><path fill="#fff" d="M153.964 26.549c-2.06-2.047-3.09-4.597-3.09-7.648 0-3.05 1.03-5.6 3.09-7.647 2.074-2.048 4.656-3.071 7.747-3.071 2.008 0 3.837.482 5.488 1.446 1.665.964 2.946 2.259 3.844 3.883l-6.34 3.606a3.378 3.378 0 0 0-1.248-1.228 3.26 3.26 0 0 0-1.744-.476c-.951 0-1.743.33-2.377.99-.634.661-.951 1.493-.951 2.497 0 1.004.317 1.836.951 2.497.634.66 1.426.99 2.377.99.661 0 1.255-.158 1.783-.475.529-.33.932-.753 1.209-1.268l6.34 3.645c-.898 1.638-2.179 2.94-3.844 3.903-1.651.951-3.48 1.427-5.488 1.427-3.091 0-5.673-1.024-7.747-3.071ZM171.558 18.901c0-1.994.482-3.81 1.446-5.448a10.407 10.407 0 0 1 3.963-3.864c1.664-.937 3.5-1.406 5.508-1.406s3.844.469 5.508 1.406a10.265 10.265 0 0 1 3.943 3.864c.977 1.638 1.466 3.454 1.466 5.448 0 1.995-.489 3.817-1.466 5.469a10.454 10.454 0 0 1-3.943 3.863c-1.664.925-3.5 1.387-5.508 1.387-1.479 0-2.893-.27-4.24-.812a11.18 11.18 0 0 1-3.487-2.259 10.725 10.725 0 0 1-2.338-3.408 10.71 10.71 0 0 1-.852-4.24Zm8.46-2.556c-.634.66-.951 1.513-.951 2.556 0 1.044.317 1.902.951 2.576.647.66 1.466.99 2.457.99.991 0 1.803-.33 2.437-.99.647-.674.971-1.532.971-2.576 0-1.043-.324-1.895-.971-2.556-.634-.673-1.446-1.01-2.437-1.01-.991 0-1.81.337-2.457 1.01ZM195.749 29.045V8.757h7.509v1.902c1.321-1.65 3.157-2.476 5.508-2.476 2.325 0 4.016.838 5.072 2.516 1.453-1.678 3.402-2.516 5.845-2.516 2.364 0 4.207.74 5.528 2.219 1.321 1.466 1.981 3.566 1.981 6.3v12.343h-7.509V17.732c0-.726-.172-1.294-.515-1.704-.343-.409-.859-.614-1.545-.614-.819 0-1.427.278-1.823.832-.383.555-.575 1.275-.575 2.16v10.64h-7.509V17.731c0-.726-.171-1.294-.515-1.704-.343-.409-.858-.614-1.545-.614-.819 0-1.427.278-1.823.832-.383.555-.575 1.275-.575 2.16v10.64h-7.509Z"/></svg>