<svg xmlns="http://www.w3.org/2000/svg" width="345" height="536" fill="none"><path fill="#fff" d="M842.185 506.336c.371-.864.556-1.853.556-2.903V7.783c0-4.262-3.459-7.783-7.783-7.783H97.166c-4.263 0-7.783 3.46-7.783 7.783v495.65c0 1.05.185 1.977.556 2.903H0v16.37s29.156 14.33 94.818 12.786l774.917-.803s48.058-3.644 62.203-11.983v-16.37h-89.753Z"/><path fill="url(#a)" d="M0 522.706s29.156 14.331 94.818 12.786l774.917-.803s48.058-3.644 62.203-11.983H0Z"/><path fill="#C9C9C9" d="M835.699 511.216H96.486a7.039 7.039 0 0 1-7.042-7.042V7.042A7.039 7.039 0 0 1 96.486 0H835.7a7.039 7.039 0 0 1 7.042 7.042v497.071c0 3.953-3.15 7.103-7.042 7.103Z"/><path fill="#E1E1E1" d="M839.714 511.216H91.915V7.536a4.824 4.824 0 0 1 4.818-4.818h738.101a4.824 4.824 0 0 1 4.818 4.818v503.68h.062Z"/><path fill="#E7E7E7" d="M833.413 511.216H98.153a6.221 6.221 0 0 1-6.238-6.239v-15.504h747.799v15.504c0 3.46-2.842 6.239-6.301 6.239Z"/><path fill="#fff" stroke="#000" stroke-miterlimit="10" stroke-width=".165" d="M821.492 25.388H109.458v452.225h712.034V25.388Z"/><path fill="url(#b)" d="M932 506.336H0v16.37h932v-16.37Z"/><path fill="#fff" d="M842.37 506.336c.247-.679.309-1.42.309-2.162V7.042A7.039 7.039 0 0 0 835.637 0H96.424a7.039 7.039 0 0 0-7.041 7.042v497.132a8.3 8.3 0 0 0 .308 2.162H0v16.37s29.156 14.33 94.818 12.786l774.917-.803s48.058-3.644 62.203-11.983v-16.37H842.37Z" opacity=".8"/><path fill="#fff" d="M108.984 25.245h722.64v452.15h-722.64z"/><path fill="#EEE" d="M268.237 108.473h563.387v213.671H268.237zM268.237 342.951h563.387v134.445H268.237zM108.984 25.245h722.64v40.814h-722.64z"/><g filter="url(#c)"><rect width="208.966" height="426.065" x="26.557" y="80.464" fill="#ECEBED" rx="40.654"/></g><path fill="#000" d="M198.119 481.352c8.366 0 15.149-6.689 15.149-14.94s-6.783-14.94-15.149-14.94c-8.367 0-15.15 6.689-15.15 14.94s6.783 14.94 15.15 14.94Z"/><path fill="#fff" d="m198.255 462.987-.015.027-2.646-2.713v9.475c0 2.746 1.257 3.824 4.992 3.418v-2.381c-1.526.081-2.331.061-2.331-1.037v-4.232h2.331v-2.523h-2.331v-.034Z"/><path fill="#00D99D" d="m198.255 461.313-2.661-2.869h2.661v2.869Z"/><rect width="189.567" height="400.373" x="35.36" y="93.268" fill="#fff" rx="28.93"/><path fill="#EEE" d="M49.765 153.288h76.025v46.415H49.765zM49.765 210.907h76.025v101.634H49.765zM136.193 153.288h76.025v159.253h-76.025zM49.765 322.144h162.454v61.62H49.765z"/><path stroke="#EEE" stroke-width="3" d="M49.765 398.27h162.454M49.765 418.276h162.454M49.765 438.283h162.454"/><defs><linearGradient id="a" x1="465.99" x2="465.99" y1="535.585" y2="522.703" gradientUnits="userSpaceOnUse"><stop stop-color="#A9A9A9"/><stop offset=".127" stop-color="#B8B8B8"/><stop offset=".307" stop-color="#C5C5C5"/><stop offset=".539" stop-color="#CDCDCD"/><stop offset="1" stop-color="#CFCFCF"/></linearGradient><linearGradient id="b" x1="0" x2="931.981" y1="514.511" y2="514.511" gradientUnits="userSpaceOnUse"><stop stop-color="#A9A9A9"/><stop offset=".026" stop-color="#F8F8F8"/><stop offset=".347" stop-color="#EFEFEF"/><stop offset=".73" stop-color="#EEE"/><stop offset=".973" stop-color="#fff"/><stop offset="1" stop-color="#A9A9A9"/></linearGradient><filter id="c" width="232.42" height="449.519" x="14.83" y="71.864" color-interpolation-filters="sRGB" filterUnits="userSpaceOnUse"><feFlood flood-opacity="0" result="BackgroundImageFix"/><feColorMatrix in="SourceAlpha" result="hardAlpha" values="0 0 0 0 0 0 0 0 0 0 0 0 0 0 0 0 0 0 127 0"/><feOffset dy="3.127"/><feGaussianBlur stdDeviation="5.863"/><feColorMatrix values="0 0 0 0 0 0 0 0 0 0 0 0 0 0 0 0 0 0 0.1 0"/><feBlend in2="BackgroundImageFix" result="effect1_dropShadow_1_56"/><feBlend in="SourceGraphic" in2="effect1_dropShadow_1_56" result="shape"/></filter></defs></svg>