<svg xmlns="http://www.w3.org/2000/svg" width="848" height="670" fill="none"><path fill="#fff" d="M1053.2 632.71c.46-1.08.69-2.315.69-3.628V9.726c0-5.326-4.32-9.726-9.72-9.726H122.231c-5.326 0-9.725 4.323-9.725 9.726v619.356c0 1.313.231 2.47.694 3.628H.815v20.455s36.432 17.908 118.483 15.978l968.322-1.004s60.05-4.554 77.73-14.974V632.71H1053.2Z"/><path fill="url(#a)" d="M.815 653.165s36.432 17.908 118.483 15.978l968.322-1.004s60.05-4.554 77.73-14.974H.815Z"/><path fill="#C9C9C9" d="M1045.09 638.808H121.382a8.795 8.795 0 0 1-8.799-8.799V8.799c0-4.862 3.937-8.799 8.799-8.799h923.708c4.86 0 8.8 3.937 8.8 8.8V629.93c0 4.941-3.94 8.877-8.8 8.877Z"/><path fill="#E1E1E1" d="M1050.11 638.808H115.67V9.417c0-3.32 2.702-6.02 6.021-6.02h922.319c3.32 0 6.02 2.7 6.02 6.02v629.391h.08Z"/><path fill="#E7E7E7" d="M1042.24 638.808H123.466a7.774 7.774 0 0 1-7.796-7.796v-19.374h934.44v19.374c0 4.323-3.55 7.796-7.87 7.796Z"/><path fill="#fff" stroke="#000" stroke-miterlimit="10" stroke-width=".165" d="M1027.34 31.724H137.592v565.094h889.748V31.724Z"/><path fill="url(#b)" d="M1165.43 632.71H.815v20.455H1165.43V632.71Z"/><path fill="url(#c)" d="M662.316 648.071H503.618c-8.491 0-15.361-6.87-15.361-15.361h189.42c0 8.491-6.87 15.361-15.361 15.361Z"/><path fill="#fff" d="M1053.43 632.71c.31-.849.38-1.775.38-2.701V8.799c0-4.862-3.93-8.799-8.8-8.799H121.305a8.795 8.795 0 0 0-8.799 8.8v621.209c0 .926.154 1.852.386 2.701H.815v20.455s36.432 17.908 118.483 15.978l968.322-1.004s60.05-4.554 77.73-14.974V632.71h-111.92Z" opacity=".8"/><path fill="#fff" d="M137 31.546h903v565H137z"/><path fill="#EEE" d="M336 135.546h704v267H336zM336 428.546h704v168H336z"/><g filter="url(#d)"><rect width="261.121" height="532.405" x="34" y="100.546" fill="#ECEBED" rx="40.654"/></g><path fill="#000" d="M248.381 601.49c10.454 0 18.93-8.359 18.93-18.669s-8.476-18.669-18.93-18.669c-10.455 0-18.931 8.359-18.931 18.669s8.476 18.669 18.931 18.669Z"/><path fill="#fff" d="m248.551 578.542-.019.034-3.307-3.391v11.84c0 3.432 1.572 4.779 6.239 4.271v-2.975c-1.907.102-2.913.076-2.913-1.296v-5.288h2.913v-3.153h-2.913v-.042Z"/><path fill="#00D99D" d="m248.551 576.45-3.326-3.586h3.326v3.586Z"/><rect width="236.88" height="500.3" x="45" y="116.546" fill="#fff" rx="28.93"/><path fill="#EEE" d="M63 191.546h95v58H63zM63 263.546h95v127H63zM171 191.546h95v199h-95zM63 402.546h203v77H63z"/><path stroke="#EEE" stroke-width="3" d="M63 498.046h203M63 523.046h203M63 548.046h203"/><defs><linearGradient id="a" x1="583.109" x2="583.109" y1="669.258" y2="653.162" gradientUnits="userSpaceOnUse"><stop stop-color="#A9A9A9"/><stop offset=".127" stop-color="#B8B8B8"/><stop offset=".307" stop-color="#C5C5C5"/><stop offset=".539" stop-color="#CDCDCD"/><stop offset="1" stop-color="#CFCFCF"/></linearGradient><linearGradient id="b" x1=".815" x2="1165.4" y1="642.925" y2="642.925" gradientUnits="userSpaceOnUse"><stop stop-color="#A9A9A9"/><stop offset=".026" stop-color="#F8F8F8"/><stop offset=".347" stop-color="#EFEFEF"/><stop offset=".73" stop-color="#EEE"/><stop offset=".973" stop-color="#fff"/><stop offset="1" stop-color="#A9A9A9"/></linearGradient><linearGradient id="c" x1="488.226" x2="677.648" y1="640.366" y2="640.366" gradientUnits="userSpaceOnUse"><stop stop-color="#A9A9A9"/><stop offset=".026" stop-color="#F8F8F8"/><stop offset=".347" stop-color="#EFEFEF"/><stop offset=".73" stop-color="#EEE"/><stop offset=".973" stop-color="#fff"/><stop offset="1" stop-color="#A9A9A9"/></linearGradient><filter id="d" width="284.575" height="555.859" x="22.273" y="91.946" color-interpolation-filters="sRGB" filterUnits="userSpaceOnUse"><feFlood flood-opacity="0" result="BackgroundImageFix"/><feColorMatrix in="SourceAlpha" result="hardAlpha" values="0 0 0 0 0 0 0 0 0 0 0 0 0 0 0 0 0 0 127 0"/><feOffset dy="3.127"/><feGaussianBlur stdDeviation="5.863"/><feColorMatrix values="0 0 0 0 0 0 0 0 0 0 0 0 0 0 0 0 0 0 0.1 0"/><feBlend in2="BackgroundImageFix" result="effect1_dropShadow_5_0"/><feBlend in="SourceGraphic" in2="effect1_dropShadow_5_0" result="shape"/></filter></defs></svg>