<svg width="709" height="670" viewBox="0 0 709 670" fill="none" xmlns="http://www.w3.org/2000/svg">
  <title>Phone</title>
<path d="M1052.38 632.71C1052.84 631.63 1053.08 630.395 1053.08 629.082V9.72569C1053.08 4.39972 1048.75 0 1043.35 0H121.417C116.091 0 111.691 4.32253 111.691 9.72569V629.082C111.691 630.395 111.923 631.552 112.386 632.71H0V653.165C0 653.165 36.4327 671.073 118.484 669.143L1086.81 668.139C1086.81 668.139 1146.86 663.585 1164.54 653.165V632.71H1052.38Z" fill="white"/>
<path d="M0 653.165C0 653.165 36.4327 671.073 118.484 669.143L1086.81 668.139C1086.81 668.139 1146.86 663.585 1164.54 653.165H0Z" fill="url(#paint0_linear_1415_4)"/>
<path d="M1044.28 638.808H120.568C115.705 638.808 111.768 634.872 111.768 630.009V8.79943C111.768 3.93659 115.705 0 120.568 0H1044.28C1049.14 0 1053.08 3.93659 1053.08 8.79943V629.931C1053.08 634.872 1049.14 638.808 1044.28 638.808Z" fill="#C9C9C9"/>
<path d="M1049.29 638.808H114.856V9.41691C114.856 6.09782 117.557 3.39624 120.876 3.39624H1043.2C1046.52 3.39624 1049.22 6.09782 1049.22 9.41691V638.808H1049.29Z" fill="#E1E1E1"/>
<path d="M1041.42 638.808H122.652C118.329 638.808 114.856 635.334 114.856 631.012V611.638H1049.29V631.012C1049.29 635.334 1045.74 638.808 1041.42 638.808Z" fill="#E7E7E7"/>
<path d="M1026.52 31.7241H136.777V596.818H1026.52V31.7241Z" fill="white" stroke="black" stroke-width="0.164881" stroke-miterlimit="10"/>
<path d="M1164.61 632.71H0V653.165H1164.61V632.71Z" fill="url(#paint1_linear_1415_4)"/>
<path d="M661.501 648.07H502.803C494.312 648.07 487.442 641.201 487.442 632.71H676.862C676.862 641.201 669.992 648.07 661.501 648.07Z" fill="url(#paint2_linear_1415_4)"/>
<path d="M581.689 20.2231C583.266 20.2231 584.545 18.9445 584.545 17.3672C584.545 15.7899 583.266 14.5112 581.689 14.5112C580.112 14.5112 578.833 15.7899 578.833 17.3672C578.833 18.9445 580.112 20.2231 581.689 20.2231Z" fill="#A9A9A9"/>
<path d="M583.001 17.3674C583.001 18.0621 582.384 18.6796 581.689 18.6796C580.994 18.6796 580.377 18.0621 580.377 17.3674C580.377 16.6727 580.994 16.0552 581.689 16.0552C582.384 16.0552 583.001 16.5955 583.001 17.3674Z" fill="#A9A9A9"/>
<path opacity="0.8" d="M1052.61 632.71C1052.92 631.861 1053 630.935 1053 630.009V8.79943C1053 3.93659 1049.06 0 1044.2 0H120.491C115.628 0 111.691 3.93659 111.691 8.79943V630.009C111.691 630.935 111.845 631.861 112.077 632.71H0V653.165C0 653.165 36.4327 671.073 118.484 669.143L1086.81 668.139C1086.81 668.139 1146.86 663.585 1164.54 653.165V632.71H1052.61Z" fill="white"/>
<rect x="136.185" y="31.546" width="903" height="565" fill="white"/>
<rect x="335.185" y="135.546" width="704" height="267" fill="#EEEEEE"/>
<rect x="335.185" y="428.546" width="704" height="168" fill="#EEEEEE"/>
<rect x="136.185" y="31.546" width="903" height="51" fill="#EEEEEE"/>
<g filter="url(#filter0_d_1415_4)">
<rect x="33.1853" y="100.546" width="261.121" height="532.405" rx="40.6535" fill="#ECEBED"/>
</g>
<path d="M247.566 601.49C258.021 601.49 266.497 593.131 266.497 582.821C266.497 572.511 258.021 564.152 247.566 564.152C237.111 564.152 228.635 572.511 228.635 582.821C228.635 593.131 237.111 601.49 247.566 601.49Z" fill="black"/>
<path d="M247.736 578.542L247.717 578.576L244.411 575.185V587.025C244.411 590.457 245.983 591.804 250.65 591.296V588.321C248.742 588.423 247.736 588.397 247.736 587.025V581.737H250.65V578.584H247.736V578.542Z" fill="white"/>
<path d="M247.736 576.45L244.411 572.864H247.736V576.45Z" fill="#00D99D"/>
<rect x="44.1853" y="116.546" width="236.88" height="500.3" rx="28.93" fill="white"/>
<rect x="62.1853" y="191.546" width="95" height="58" fill="#EEEEEE"/>
<rect x="62.1853" y="263.546" width="95" height="127" fill="#EEEEEE"/>
<rect x="170.185" y="191.546" width="95" height="199" fill="#EEEEEE"/>
<rect x="62.1853" y="402.546" width="203" height="77" fill="#EEEEEE"/>
<line x1="62.1853" y1="498.046" x2="265.185" y2="498.046" stroke="#EEEEEE" stroke-width="3"/>
<line x1="62.1853" y1="523.046" x2="265.185" y2="523.046" stroke="#EEEEEE" stroke-width="3"/>
<line x1="62.1853" y1="548.046" x2="265.185" y2="548.046" stroke="#EEEEEE" stroke-width="3"/>
<defs>
<filter id="filter0_d_1415_4" x="21.4583" y="91.9462" width="284.575" height="555.859" filterUnits="userSpaceOnUse" color-interpolation-filters="sRGB">
<feFlood flood-opacity="0" result="BackgroundImageFix"/>
<feColorMatrix in="SourceAlpha" type="matrix" values="0 0 0 0 0 0 0 0 0 0 0 0 0 0 0 0 0 0 127 0" result="hardAlpha"/>
<feOffset dy="3.12719"/>
<feGaussianBlur stdDeviation="5.86349"/>
<feColorMatrix type="matrix" values="0 0 0 0 0 0 0 0 0 0 0 0 0 0 0 0 0 0 0.1 0"/>
<feBlend mode="normal" in2="BackgroundImageFix" result="effect1_dropShadow_1415_4"/>
<feBlend mode="normal" in="SourceGraphic" in2="effect1_dropShadow_1415_4" result="shape"/>
</filter>
<linearGradient id="paint0_linear_1415_4" x1="582.295" y1="669.258" x2="582.295" y2="653.162" gradientUnits="userSpaceOnUse">
<stop stop-color="#A9A9A9"/>
<stop offset="0.1274" stop-color="#B8B8B8"/>
<stop offset="0.3072" stop-color="#C5C5C5"/>
<stop offset="0.5387" stop-color="#CDCDCD"/>
<stop offset="1" stop-color="#CFCFCF"/>
</linearGradient>
<linearGradient id="paint1_linear_1415_4" x1="0.000142254" y1="642.925" x2="1164.59" y2="642.925" gradientUnits="userSpaceOnUse">
<stop stop-color="#A9A9A9"/>
<stop offset="0.0256409" stop-color="#F8F8F8"/>
<stop offset="0.347" stop-color="#EFEFEF"/>
<stop offset="0.7299" stop-color="#EEEEEE"/>
<stop offset="0.9726" stop-color="white"/>
<stop offset="1" stop-color="#A9A9A9"/>
</linearGradient>
<linearGradient id="paint2_linear_1415_4" x1="487.411" y1="640.366" x2="676.834" y2="640.366" gradientUnits="userSpaceOnUse">
<stop stop-color="#A9A9A9"/>
<stop offset="0.0256409" stop-color="#F8F8F8"/>
<stop offset="0.347" stop-color="#EFEFEF"/>
<stop offset="0.7299" stop-color="#EEEEEE"/>
<stop offset="0.9726" stop-color="white"/>
<stop offset="1" stop-color="#A9A9A9"/>
</linearGradient>
</defs>
</svg>
