<svg xmlns="http://www.w3.org/2000/svg" width="119" height="112" fill="none"><title>Card image part</title><path fill="#49D4A2" d="M65.5 112c29.547 0 53.5-23.953 53.5-53.5S95.047 5 65.5 5 12 28.953 12 58.5 35.953 112 65.5 112Z"/><path stroke="#05A678" stroke-linecap="round" stroke-linejoin="round" stroke-miterlimit="10" stroke-width="2" d="m64.5 60.996 25.196-8.033c4.521 13.655-3.093 28.318-17.01 32.758-13.915 4.436-28.858-3.036-33.382-16.691-4.521-13.656 3.093-28.322 17.01-32.758C59.096 35.386 61.573 35 64.5 35v25.996Z"/><path stroke="#05A678" stroke-linecap="round" stroke-linejoin="round" stroke-miterlimit="10" stroke-width="2" d="M71 50.996V25c11.485 0 21.174 7.04 24.725 17.963L71 50.996Z"/><path fill="#079C72" d="M19.5 39C30.27 39 39 30.27 39 19.5S30.27 0 19.5 0 0 8.73 0 19.5 8.73 39 19.5 39Z"/><path fill="#fff" d="M19.587 25.273c2.054 0 3.835-1.07 4.715-2.725l-1.949-1.11c-.503.963-1.53 1.613-2.787 1.613-1.844 0-3.248-1.404-3.248-3.29 0-1.887 1.404-3.29 3.248-3.29 1.257 0 2.284.628 2.745 1.613l1.95-1.132c-.839-1.635-2.62-2.703-4.674-2.703-3.165 0-5.533 2.389-5.533 5.511 0 3.102 2.368 5.512 5.533 5.512Z"/></svg>
