<svg xmlns="http://www.w3.org/2000/svg" width="117" height="117" fill="none"><title>Card image user</title><path fill="#49D4A2" d="M63.5 117c29.547 0 53.5-23.953 53.5-53.5S93.047 10 63.5 10 10 33.953 10 63.5 33.953 117 63.5 117Z"/><path stroke="#079C72" stroke-miterlimit="10" stroke-width="2" d="M53.24 48.04v4.037c0 4.956 3.808 9.269 8.764 9.452 5.139.092 9.36-3.992 9.36-9.085V48.04A9.027 9.027 0 0 0 62.325 39c-5.047-.045-9.085 4.038-9.085 9.04Z"/><path stroke="#079C72" stroke-linejoin="bevel" stroke-miterlimit="10" stroke-width="2" d="m42 84.592 5-18.429 9.636-2.799a7.92 7.92 0 0 0 11.24 0l9.636 2.8 5 18.428H42Z"/><path fill="#079C72" d="M19.5 39C30.27 39 39 30.27 39 19.5S30.27 0 19.5 0 0 8.73 0 19.5 8.73 39 19.5 39Z"/><path fill="#fff" d="M22.02 14.521v1.488c-.797-1.09-2.034-1.76-3.668-1.76-2.85 0-5.219 2.389-5.219 5.511 0 3.102 2.368 5.512 5.219 5.512 1.634 0 2.87-.67 3.667-1.781V25h2.264V14.521h-2.264Zm-3.312 8.593c-1.886 0-3.311-1.404-3.311-3.354 0-1.949 1.425-3.353 3.31-3.353 1.887 0 3.312 1.404 3.312 3.354 0 1.949-1.425 3.353-3.311 3.353Z"/></svg>
