<svg xmlns="http://www.w3.org/2000/svg" width="118" height="113" fill="none"><title>Card image dollar</title><path fill="#49D4A2" d="M64.5 113c29.547 0 53.5-23.953 53.5-53.5S94.047 6 64.5 6 11 29.953 11 59.5 34.953 113 64.5 113Z"/><path fill="#079C72" d="M19.5 39C30.27 39 39 30.27 39 19.5S30.27 0 19.5 0 0 8.73 0 19.5 8.73 39 19.5 39Z"/><path fill="#fff" d="M19.786 15.716c-1.634 0-2.87.67-3.667 1.76v-5.68h-2.264v14.671h2.264v-1.509c.796 1.111 2.033 1.782 3.667 1.782 2.85 0 5.219-2.41 5.219-5.512 0-3.123-2.368-5.512-5.219-5.512Zm-.356 8.865c-1.886 0-3.311-1.404-3.311-3.353 0-1.95 1.425-3.354 3.311-3.354s3.311 1.405 3.311 3.354-1.425 3.353-3.31 3.353Z"/><path fill="#079C72" stroke="#079C72" stroke-miterlimit="10" d="M65.242 80.42v5.334h-1.144v-5.276h-.172c-6.522 0-11.498-2.87-12.926-7.854l.973-.587c1.316 4.924 6.006 7.385 11.955 7.385h.173v-19.87c-5.951-1.992-11.5-4.102-11.5-10.96 0-5.745 4.918-10.316 11.497-10.316V33h1.144v5.335c5.033.292 8.75 2.812 10.351 7.034l-.913.526c-1.316-3.576-4.405-6.155-9.439-6.506V58.79c6.234 2.228 11.498 4.456 11.498 11.021 0 5.979-4.406 10.14-11.498 10.608Zm-1.144-21.981v-19.11c-6.521 0-10.351 4.63-10.351 9.263-.003 6.155 5.26 8.03 10.351 9.847ZM75.596 69.81c0-5.686-4.518-7.855-10.352-9.847v19.402c6.977-.47 10.352-4.633 10.352-9.555Z"/></svg>
